<svg xmlns="http://www.w3.org/2000/svg" viewBox="0 0 64 64" role="img" aria-labelledby="title">
  <title id="title">Recruit's Gloves</title>
  <defs>
    <linearGradient id="leather" x1="17" y1="6" x2="48" y2="58" gradientUnits="userSpaceOnUse">
      <stop stop-color="#9a6a42"/>
      <stop offset=".4" stop-color="#62432f"/>
      <stop offset="1" stop-color="#30231e"/>
    </linearGradient>
    <linearGradient id="palm" x1="22" y1="25" x2="44" y2="49" gradientUnits="userSpaceOnUse">
      <stop stop-color="#7a5538"/>
      <stop offset="1" stop-color="#493126"/>
    </linearGradient>
    <linearGradient id="cuff" x1="18" y1="45" x2="43" y2="60" gradientUnits="userSpaceOnUse">
      <stop stop-color="#755136"/>
      <stop offset="1" stop-color="#372720"/>
    </linearGradient>
  </defs>

  <!-- One large open hand stays legible at inventory size: four fingers, thumb, palm, cuff. -->
  <path d="M21 31 18 15c-1-4 1-7 4-7 2 0 4 2 4 5l2 11-1-16c0-4 2-6 5-6s5 2 5 6v15l2-13c1-3 3-5 6-4 3 1 4 3 3 7l-3 14 3-8c1-3 4-4 6-2 3 2 2 5 1 8l-7 19c-2 5-7 9-13 10-8 1-15-3-18-10L9 31c-2-4-1-7 2-8 3-1 5 1 7 4l3 4Z" fill="url(#leather)" stroke="#241b1c" stroke-width="2.4" stroke-linecap="round" stroke-linejoin="round"/>
  <path d="M22 32c5-7 17-8 23-1l-1 12c-2 5-6 8-11 8-7 0-12-4-14-10l3-9Z" fill="url(#palm)" stroke="#3b2922" stroke-width="1.2"/>
  <path d="m19 30 6 7m20-9-5 7M27 24l2 9m8-10-2 10" fill="none" stroke="#c08a55" stroke-width="1.3" stroke-linecap="round" opacity=".78"/>

  <!-- Reinforced palm and flared patrol cuff. -->
  <path d="M25 34c5-3 12-2 16 2l-2 9c-3 3-8 4-12 1-3-3-4-8-2-12Z" fill="#8a5d3b" stroke="#443026" stroke-width="1.3"/>
  <path d="m18 48 23-2 5 14H17l1-12Z" fill="url(#cuff)" stroke="#241b1c" stroke-width="2.2" stroke-linejoin="round"/>
  <path d="m20 50 21-2 2 5-24 2 1-5Z" fill="#8d6542" stroke="#39271f" stroke-width="1.1"/>
  <path d="M25 53h10v6H25z" fill="#4a3328" stroke="#b98b50" stroke-width="1.2"/>
  <path d="m28 40 8-2m-7 6 7-2" stroke="#d09b61" stroke-width="1.1" stroke-linecap="round" opacity=".72"/>
</svg>
