<svg xmlns="http://www.w3.org/2000/svg" viewBox="0 0 64 64" role="img" aria-labelledby="title">
  <title id="title">Soldier braced behind a planted shield with rising stamina</title>
  <defs>
    <radialGradient id="bg" cx="48%" cy="38%" r="76%">
      <stop stop-color="#245465"/>
      <stop offset=".54" stop-color="#102c38"/>
      <stop offset="1" stop-color="#06131c"/>
    </radialGradient>
    <linearGradient id="steel" x1="17" y1="21" x2="39" y2="54" gradientUnits="userSpaceOnUse">
      <stop stop-color="#d5edf0"/>
      <stop offset=".28" stop-color="#79aab3"/>
      <stop offset=".68" stop-color="#315968"/>
      <stop offset="1" stop-color="#142c38"/>
    </linearGradient>
    <linearGradient id="armor" x1="25" y1="13" x2="46" y2="47" gradientUnits="userSpaceOnUse">
      <stop stop-color="#9ac5ca"/>
      <stop offset=".5" stop-color="#3d7180"/>
      <stop offset="1" stop-color="#183643"/>
    </linearGradient>
    <linearGradient id="stamina" x1="32" y1="58" x2="32" y2="35" gradientUnits="userSpaceOnUse">
      <stop stop-color="#d48f21"/>
      <stop offset=".5" stop-color="#f6cb50"/>
      <stop offset="1" stop-color="#fff3a0"/>
    </linearGradient>
    <filter id="glow" x="-60%" y="-60%" width="220%" height="220%">
      <feGaussianBlur stdDeviation="1.7" result="blur"/>
      <feMerge><feMergeNode in="blur"/><feMergeNode in="SourceGraphic"/></feMerge>
    </filter>
  </defs>
  <rect width="64" height="64" rx="7" fill="url(#bg)"/>
  <path d="M7 51c12-5 38-5 50 0v9H7v-9Z" fill="#050e15" opacity=".72"/>
  <g filter="url(#glow)" fill="none" stroke="url(#stamina)" stroke-linecap="round" stroke-linejoin="round">
    <path d="M12 55c9 4 31 4 41 0M16 50c8 3 26 3 34 0" stroke-width="2.2" opacity=".85"/>
    <path d="m20 53 3-7 3 4 3-10M39 53l-2-8-3 4-1-9M46 53l1-7" stroke-width="2.4"/>
  </g>
  <g stroke="#081820" stroke-linecap="round" stroke-linejoin="round">
    <path d="m31 17 10 4 5 13-8 5-11-10 4-12Z" fill="url(#armor)" stroke-width="2.4"/>
    <path d="M29 18c0-6 3-10 8-10 5 0 8 3 8 8l-3 8-10-1-3-5Z" fill="url(#steel)" stroke-width="2.2"/>
    <path d="m28 16 5-7c5-2 10 1 12 5l-8-2-1 7-8-3Z" fill="#294d5b" stroke-width="2"/>
    <path d="m38 13 8 2-3 4-6-1 1-5Z" fill="#d7eef0" stroke-width="1.4"/>
    <path d="m40 32 7 4-7 8-9 9-7-2 9-12 7-7Z" fill="url(#armor)" stroke-width="2.7"/>
    <path d="m30 39 4 5-11 11H12l1-5 9-2 8-9Z" fill="#315e6d" stroke-width="2.7"/>
  </g>
  <path d="M12 25c4-5 12-7 20-4l2 18c1 8-3 14-12 18-8-4-12-10-11-18l1-14Z" fill="url(#steel)" stroke="#d5eef0" stroke-width="2" stroke-linejoin="round"/>
  <path d="M16 27c4-3 9-4 14-2l1 13c1 6-2 10-9 14-6-3-8-8-8-13l2-12Z" fill="#214653" opacity=".55"/>
  <path d="M22 27v24M15 38h15" fill="none" stroke="#b9dde0" stroke-width="2" stroke-linecap="round" opacity=".75"/>
  <g stroke="#081820" stroke-linecap="round" stroke-linejoin="round">
    <path d="m50 10 4 4-4 4-4-4 4-4Z" fill="#d6aa49" stroke-width="1.8"/>
    <path d="m47 16 5 1-2 13-6-1 3-13Z" fill="#543d28" stroke-width="2"/>
    <path d="m47 18 4 1m-5 3 4 1m-5 3 4 1" fill="none" stroke="#e3bb5c" stroke-width="1.5"/>
    <path d="m39 27 19 3-1 5-8-2-5 2-6-4 1-4Z" fill="#d1a84e" stroke-width="2"/>
    <path d="m44 32 8 1-2 18-3 6-3-7V32Z" fill="url(#steel)" stroke-width="2.2"/>
    <path d="m48 35 2 .3-2 15-1 2 .4-13 .6-4.3Z" fill="#edf8ee" stroke="none" opacity=".88"/>
    <path d="M39 29c4-1 8 1 9 5l-4 4-7-3 2-6Z" fill="#b7d5d6" stroke-width="2"/>
  </g>
  <path d="M13 54c3-1 7-1 10 1M37 55c5-2 10-2 14 0" fill="none" stroke="#ffe179" stroke-width="2.2" stroke-linecap="round" filter="url(#glow)"/>
  <rect x=".75" y=".75" width="62.5" height="62.5" rx="6.25" fill="none" stroke="#89b6bd" stroke-opacity=".78" stroke-width="1.5"/>
</svg>
