<svg xmlns="http://www.w3.org/2000/svg" viewBox="0 0 32 32">
  <defs>
    <linearGradient id="spellbook-page" x1="4" y1="7" x2="27" y2="26" gradientUnits="userSpaceOnUse">
      <stop stop-color="#fff2c5"/>
      <stop offset="1" stop-color="#c69b55"/>
    </linearGradient>
  </defs>
  <path d="M4 7.2c4.7-.6 8.6.5 12 3.2 3.4-2.7 7.3-3.8 12-3.2v18.1c-4.6-.5-8.5.5-12 3-3.5-2.5-7.4-3.5-12-3V7.2Z" fill="url(#spellbook-page)" stroke="#f5dda0" stroke-width="1.7" stroke-linejoin="round"/>
  <path d="M16 10.4v17.9M7.5 12.1c2.1 0 3.9.4 5.5 1.3M7.5 16.1c2.1 0 3.9.4 5.5 1.3M19 18.3c1.7-1.2 3.6-1.8 5.7-1.8M19 22.2c1.7-1.2 3.6-1.8 5.7-1.8" fill="none" stroke="#79572f" stroke-width="1.35" stroke-linecap="round"/>
  <path d="m22.5 7.2.8 2.1 2.2.8-2.2.8-.8 2.1-.8-2.1-2.2-.8 2.2-.8.8-2.1Z" fill="#fff7bd" stroke="#a76d20" stroke-width=".8" stroke-linejoin="round"/>
</svg>
